<?xml version='1.0' encoding='UTF-8' standalone='no'?>
<!-- Created with Fritzing (http://www.fritzing.org/) -->
<svg xmlns="http://www.w3.org/2000/svg" x="0in" width="3.85581in" viewBox="0 0 277.618 187.205" y="0in" baseProfile="tiny"  version="1.2" xmlns:svg="http://www.w3.org/2000/svg" height="2.60006in">
 <g partID="57561">
  <g id="silkscreen">
   <rect width="277.042" x="0.288" y="0.288" fill="none" stroke="black" stroke-width="0.576" height="186.629"/>
  </g>
 </g>
 <g id="partLabel" partID="57560">
  <g transform="translate(128.627,11.7478)">
   <g font-style="normal" font-weight="normal" fill="#000000" id="silkscreenLabel" stroke="none" font-family="'OCRA'" fill-opacity="1" font-size="5">
    <text x="0" y="3.75">5ynco</text>
   </g>
  </g>
 </g>
 <g partID="57560">
  <g id="board">
   <rect width="277.042" x="0.288" y="0.288" id="boardoutline" fill="none" stroke="black" stroke-width="0.5" fill-opacity="0.5" height="186.629"/>
  </g>
 </g>
 <g partID="57561">
  <g id="silkscreen">
   <rect width="277.042" x="0.288" y="0.288" fill="none" stroke="black" stroke-width="0.576" height="186.629"/>
  </g>
 </g>
 <g partID="854334491">
  <g transform="translate(150.916,19.9938)">
   <g transform="matrix(0,1,-1,0,0,0)">
    <g gorn="0.2" id="silkscreen">
     <path d="M0.288,7.45308A6.912,6.912,0,0,1,7.4057,0.288L42.9943,0.288A6.912,6.912,0,0,1,50.112,7.45308L50.112,111.347A6.912,6.912,0,0,1,42.9943,118.512L7.4057,118.512A6.912,6.912,0,0,1,0.288,111.347L0.288,7.45308" stroke="black" fill="none" stroke-width="0.576"/>
     <g>
      <title>element:JP3</title>
      <g>
       <title>package:1X13_ROUND_70</title>
      </g>
     </g>
     <g>
      <title>element:JP4</title>
      <g>
       <title>package:1X13_ROUND_70</title>
      </g>
     </g>
     <g>
      <title>element:U$14</title>
      <g>
       <title>package:ADAFRUIT_9MM</title>
      </g>
     </g>
     <g>
      <title>element:U1</title>
      <g>
       <title>package:QFN24_4MM_SMSC</title>
       <line x1="31.6984" x2="32.4" stroke-linecap="round" stroke="black" stroke-width="0.576" y1="77.5159" y2="78.2179"/>
       <line x1="33.1015" x2="32.4" stroke-linecap="round" stroke="black" stroke-width="0.576" y1="77.5159" y2="78.2179"/>
       <line x1="25.0839" x2="24.3824" stroke-linecap="round" stroke="black" stroke-width="0.576" y1="70.9016" y2="70.2"/>
       <line x1="24.3824" x2="25.0839" stroke-linecap="round" stroke="black" stroke-width="0.576" y1="70.2" y2="69.4985"/>
       <line x1="39.7161" x2="40.4176" stroke-linecap="round" stroke="black" stroke-width="0.576" y1="70.9016" y2="70.2"/>
       <line x1="40.4176" x2="39.7161" stroke-linecap="round" stroke="black" stroke-width="0.576" y1="70.2" y2="69.4985"/>
       <line x1="33.1015" x2="31.6984" stroke-linecap="round" stroke="black" stroke-width="0.576" y1="62.8839" y2="62.8839"/>
       <circle stroke="black" fill="none" stroke-width="0.576" cx="28.8361" r="0.36" cy="61.545"/>
      </g>
     </g>
    </g>
   </g>
  </g>
 </g>
 <g partID="854333821">
  <g transform="translate(10.516,149.475)">
   <g transform="matrix(0,-1,1,0,0,0)">
    <g gorn="0.2" id="silkscreen">
     <path d="M0.288,7.45308A6.912,6.912,0,0,1,7.4057,0.288L42.9943,0.288A6.912,6.912,0,0,1,50.112,7.45308L50.112,111.347A6.912,6.912,0,0,1,42.9943,118.512L7.4057,118.512A6.912,6.912,0,0,1,0.288,111.347L0.288,7.45308" stroke="black" fill="none" stroke-width="0.576"/>
     <g>
      <title>element:JP3</title>
      <g>
       <title>package:1X13_ROUND_70</title>
      </g>
     </g>
     <g>
      <title>element:JP4</title>
      <g>
       <title>package:1X13_ROUND_70</title>
      </g>
     </g>
     <g>
      <title>element:U$14</title>
      <g>
       <title>package:ADAFRUIT_9MM</title>
      </g>
     </g>
     <g>
      <title>element:U1</title>
      <g>
       <title>package:QFN24_4MM_SMSC</title>
       <line x1="31.6984" x2="32.4" stroke-linecap="round" stroke="black" stroke-width="0.576" y1="77.5159" y2="78.2179"/>
       <line x1="33.1015" x2="32.4" stroke-linecap="round" stroke="black" stroke-width="0.576" y1="77.5159" y2="78.2179"/>
       <line x1="25.0839" x2="24.3824" stroke-linecap="round" stroke="black" stroke-width="0.576" y1="70.9016" y2="70.2"/>
       <line x1="24.3824" x2="25.0839" stroke-linecap="round" stroke="black" stroke-width="0.576" y1="70.2" y2="69.4985"/>
       <line x1="39.7161" x2="40.4176" stroke-linecap="round" stroke="black" stroke-width="0.576" y1="70.9016" y2="70.2"/>
       <line x1="40.4176" x2="39.7161" stroke-linecap="round" stroke="black" stroke-width="0.576" y1="70.2" y2="69.4985"/>
       <line x1="33.1015" x2="31.6984" stroke-linecap="round" stroke="black" stroke-width="0.576" y1="62.8839" y2="62.8839"/>
       <circle stroke="black" fill="none" stroke-width="0.576" cx="28.8361" r="0.36" cy="61.545"/>
      </g>
     </g>
    </g>
   </g>
  </g>
 </g>
 <g partID="854668581">
  <g transform="translate(204.556,18.5538)">
   <g transform="matrix(0,1,-1,0,0,0)">
    <g id="silkscreen">
     <line x1="1.44" x2="1.44" stroke="black" stroke-width="0.72" y1="1.44" y2="30.24"/>
     <line x1="1.44" x2="8.64" stroke="black" stroke-width="0.72" y1="30.24" y2="30.24"/>
     <line x1="8.64" x2="8.64" stroke="black" stroke-width="0.72" y1="30.24" y2="1.44"/>
     <line x1="8.64" x2="1.44" stroke="black" stroke-width="0.72" y1="1.44" y2="1.44"/>
     <line x1="1.44" x2="3.96" stroke="black" stroke-width="0.36" y1="3.96" y2="1.44"/>
     <!-- 120 -->
    </g>
   </g>
  </g>
 </g>
 <g partID="854828071">
  <g transform="translate(233.356,148.154)">
   <g transform="matrix(0,1,-1,0,0,0)">
    <g id="silkscreen">
     <line x1="1.44" x2="1.44" stroke="black" stroke-width="0.72" y1="1.44" y2="37.44"/>
     <line x1="1.44" x2="15.84" stroke="black" stroke-width="0.72" y1="37.44" y2="37.44"/>
     <line x1="15.84" x2="15.84" stroke="black" stroke-width="0.72" y1="37.44" y2="1.44"/>
     <line x1="15.84" x2="1.44" stroke="black" stroke-width="0.72" y1="1.44" y2="1.44"/>
     <line x1="1.44" x2="3.96" stroke="black" stroke-width="0.36" y1="3.96" y2="1.44"/>
     <!-- 120 -->
    </g>
   </g>
  </g>
 </g>
 <g partID="854878381">
  <g transform="translate(50.476,93.4338)">
   <g transform="matrix(0,-1,1,0,0,0)">
    <g id="silkscreen">
     <line x1="1.44" x2="1.44" stroke="black" stroke-width="0.72" y1="1.44" y2="59.04"/>
     <line x1="1.44" x2="15.84" stroke="black" stroke-width="0.72" y1="59.04" y2="59.04"/>
     <line x1="15.84" x2="15.84" stroke="black" stroke-width="0.72" y1="59.04" y2="1.44"/>
     <line x1="15.84" x2="1.44" stroke="black" stroke-width="0.72" y1="1.44" y2="1.44"/>
     <line x1="1.44" x2="3.96" stroke="black" stroke-width="0.36" y1="3.96" y2="1.44"/>
     <!-- 120 -->
    </g>
   </g>
  </g>
 </g>
 <g partID="854425561">
  <g transform="translate(175.756,129.434)">
   <g transform="matrix(-1,0,0,-1,0,0)">
    <g id="silkscreen">
     <line x1="1.44" x2="1.44" stroke="black" stroke-width="0.72" y1="1.44" y2="15.84"/>
     <line x1="1.44" x2="8.64" stroke="black" stroke-width="0.72" y1="15.84" y2="15.84"/>
     <line x1="8.64" x2="8.64" stroke="black" stroke-width="0.72" y1="15.84" y2="1.44"/>
     <line x1="8.64" x2="1.44" stroke="black" stroke-width="0.72" y1="1.44" y2="1.44"/>
     <line x1="1.44" x2="3.96" stroke="black" stroke-width="0.36" y1="3.96" y2="1.44"/>
     <!-- 120 -->
    </g>
   </g>
  </g>
 </g>
 <g partID="854373931">
  <g transform="translate(277.276,-12.7662)">
   <g transform="matrix(0,1,-1,0,0,0)">
    <g id="silkscreen">
     <line x1="21.96" x2="0.72" stroke="black" stroke-width="0.72" y1="25.2" y2="25.2"/>
     <line x1="0.72" x2="0.72" stroke="black" stroke-width="0.72" y1="25.2" y2="0.72"/>
     <line x1="0.72" x2="41.04" stroke="black" stroke-width="0.72" y1="0.72" y2="0.72"/>
     <line x1="41.04" x2="41.04" stroke="black" stroke-width="0.72" y1="0.72" y2="4.32"/>
     <line x1="38.16" x2="41.04" stroke="black" stroke-width="0.72" y1="25.2" y2="25.2"/>
     <line x1="41.04" x2="41.04" stroke="black" stroke-width="0.72" y1="25.2" y2="21.6"/>
     <line x1="0.72" x2="0.72" stroke="black" stroke-width="0.72" y1="25.2" y2="0.72"/>
     <line x1="1.08" x2="1.08" stroke="black" stroke-width="0.72" y1="25.2" y2="0.72"/>
     <line x1="1.44" x2="1.44" stroke="black" stroke-width="0.72" y1="25.2" y2="0.72"/>
     <line x1="1.8" x2="1.8" stroke="black" stroke-width="0.72" y1="25.2" y2="0.72"/>
     <line x1="2.16" x2="2.16" stroke="black" stroke-width="0.72" y1="25.2" y2="0.72"/>
     <line x1="2.52" x2="2.52" stroke="black" stroke-width="0.72" y1="25.2" y2="0.72"/>
     <line x1="2.88" x2="2.88" stroke="black" stroke-width="0.72" y1="25.2" y2="0.72"/>
     <line x1="3.24" x2="3.24" stroke="black" stroke-width="0.72" y1="25.2" y2="0.72"/>
     <line x1="10.08" x2="10.08" stroke="black" stroke-width="0.72" y1="25.2" y2="0.72"/>
     <line x1="9.72" x2="9.72" stroke="black" stroke-width="0.72" y1="25.2" y2="0.72"/>
     <line x1="9.36" x2="9.36" stroke="black" stroke-width="0.72" y1="25.2" y2="0.72"/>
     <line x1="9" x2="9" stroke="black" stroke-width="0.72" y1="25.2" y2="0.72"/>
     <line x1="8.64" x2="8.64" stroke="black" stroke-width="0.72" y1="25.2" y2="0.72"/>
     <line x1="8.28" x2="8.28" stroke="black" stroke-width="0.72" y1="25.2" y2="0.72"/>
     <line x1="7.92" x2="7.92" stroke="black" stroke-width="0.72" y1="25.2" y2="0.72"/>
     <line x1="7.56" x2="7.56" stroke="black" stroke-width="0.72" y1="25.2" y2="0.72"/>
    </g>
   </g>
  </g>
 </g>
 <g partID="58141">
  <g transform="translate(254.147,34.2278)">
   <g transform="matrix(6.93889e-18,1,-1,6.93889e-18,0,0)">
    <g transform="matrix(1, 0, 0, 1, -110.015, -437.288)">
     <g id="silkscreen">
      <g gorn="0.1.0.0.0.0.6">
       <line x1="216.135" x2="119.471" fill="none" stroke-width="1.1114" stroke="black" y1="446.458" y2="446.458"/>
       <line x1="119.471" x2="119.471" fill="none" stroke-width="1.1114" stroke="black" y1="446.458" y2="500.613"/>
       <line x1="119.471" x2="216.135" fill="none" stroke-width="1.1114" stroke="black" y1="500.613" y2="500.613"/>
       <line x1="216.135" x2="216.136" fill="none" stroke-width="1.1114" stroke="black" y1="446.458" y2="459.808"/>
       <line x1="216.135" x2="216.135" fill="none" stroke-width="1.1114" stroke="black" y1="487.252" y2="500.613"/>
      </g>
     </g>
    </g>
   </g>
  </g>
 </g>
 <g id="partLabel" partID="57560">
  <g transform="translate(128.627,11.7478)">
   <g font-style="normal" font-weight="normal" fill="#000000" id="silkscreenLabel" stroke="none" font-family="'OCRA'" fill-opacity="1" font-size="5">
    <text x="0" y="3.75">5ynco</text>
   </g>
  </g>
 </g>
 <g id="partLabel" partID="854878380">
  <g transform="translate(56.1166,94.2162)">
   <g transform="matrix(1,0,0,1,0,0)">
    <g font-style="normal" font-weight="normal" fill="#000000" id="silkscreenLabel" stroke="none" font-family="'OCRA'" fill-opacity="1" font-size="5">
     <text x="0" y="3.75">1-16 bus stops</text>
    </g>
   </g>
  </g>
 </g>
 <g id="partLabel" partID="58140">
  <g transform="translate(271.409,45.8902)">
   <g font-style="normal" font-weight="normal" fill="#000000" id="silkscreenLabel" stroke="none" font-family="'OCRA'" fill-opacity="1" font-size="5">
    <text x="0" y="3.75">Adafruit HUZZAH</text>
   </g>
  </g>
 </g>
 <g id="partLabel" partID="854334490">
  <g transform="translate(50.8108,34.0499)">
   <g font-style="normal" font-weight="normal" fill="#000000" id="silkscreenLabel" stroke="none" font-family="'OCRA'" fill-opacity="1" font-size="5">
    <text x="0" y="3.75">CAP1188 0x29</text>
   </g>
  </g>
 </g>
 <g id="partLabel" partID="854668580">
  <g transform="translate(169.726,12.0919)">
   <g font-style="normal" font-weight="normal" fill="#000000" id="silkscreenLabel" stroke="none" font-family="'OCRA'" fill-opacity="1" font-size="5">
    <text x="0" y="3.75">Stop lights</text>
   </g>
  </g>
 </g>
 <g id="partLabel" partID="854425560">
  <g transform="translate(163.618,107.166)">
   <g transform="matrix(-1.22465e-16,1,-1,-1.22465e-16,0,0)">
    <g font-style="normal" font-weight="normal" fill="#000000" id="silkscreenLabel" stroke="none" font-family="'OCRA'" fill-opacity="1" font-size="5">
     <text x="0" y="3.75">Program (RX/TX)</text>
    </g>
   </g>
  </g>
 </g>
 <g id="partLabel" partID="854373930">
  <g transform="translate(258.799,34.4827)">
   <g font-style="normal" font-weight="normal" fill="#000000" id="silkscreenLabel" stroke="none" font-family="'OCRA'" fill-opacity="1" font-size="5">
    <text x="0" y="3.75">Power</text>
   </g>
  </g>
 </g>
 <g id="partLabel" partID="854333820">
  <g transform="translate(66.5065,133.351)">
   <g font-style="normal" font-weight="normal" fill="#000000" id="silkscreenLabel" stroke="none" font-family="'OCRA'" fill-opacity="1" font-size="5">
    <text x="0" y="3.75">CAP1188 0x28</text>
   </g>
  </g>
 </g>
 <g id="partLabel" partID="854828070">
  <g transform="translate(222.556,131.754)">
   <g font-style="normal" font-weight="normal" fill="#000000" id="silkscreenLabel" stroke="none" font-family="'OCRA'" fill-opacity="1" font-size="5">
    <text x="0" y="3.75">Routes lights</text>
   </g>
  </g>
 </g>
 <g partID="854802961">
  <g transform="translate(214.981,17.4583)">
   <g id="copper1">
    <circle fill="white" stroke-width="0.72" stroke="white" id="nonconn0" cx="6.13543" r="4.53543" cy="6.13543"/>
   </g>
  </g>
 </g>
 <g partID="854800641">
  <g transform="translate(34.9806,78.605)">
   <g id="copper1">
    <circle fill="white" stroke-width="0.72" stroke="white" id="nonconn0" cx="6.13543" r="4.53543" cy="6.13543"/>
   </g>
  </g>
 </g>
 <g partID="854800621">
  <g transform="translate(128.581,78.7114)">
   <g id="copper1">
    <circle fill="white" stroke-width="0.72" stroke="white" id="nonconn0" cx="6.13543" r="4.53543" cy="6.13543"/>
   </g>
  </g>
 </g>
 <g partID="854800591">
  <g transform="translate(178.981,154.259)">
   <g id="copper1">
    <circle fill="white" stroke-width="0.72" stroke="white" id="nonconn0" cx="6.13543" r="4.53543" cy="6.13543"/>
   </g>
  </g>
 </g>
 <g partID="854334492">
  <g transform="translate(150.916,19.9938)">
   <g transform="matrix(0,1,-1,0,0,0)">
    <g gorn="0.3" id="copper1">
     <g gorn="0.3.0" id="copper0">
      <circle gorn="0.3.0.0" connectorname="WAKE/MOSI" id="connector11pad" stroke="white" fill="white" stroke-width="1.67868" cx="46.8" r="1.89666" cy="16.2"/>
      <rect x="44.9033" width="3.79332" y="14.3033" stroke="white" fill="white" stroke-width="1.67868" height="3.79332"/>
      <circle gorn="0.3.0.2" connectorname="CS" id="connector12pad" stroke="white" fill="white" stroke-width="1.67868" cx="46.8" r="1.89666" cy="23.4"/>
      <circle gorn="0.3.0.3" connectorname="RESET" id="connector13pad" stroke="white" fill="white" stroke-width="1.67868" cx="46.8" r="1.89666" cy="30.6"/>
      <circle gorn="0.3.0.4" connectorname="3.3V" id="connector14pad" stroke="white" fill="white" stroke-width="1.67868" cx="46.8" r="1.89666" cy="37.8"/>
      <circle gorn="0.3.0.5" connectorname="P$1" id="connector82pad" stroke="white" fill="white" stroke-width="2.16" cx="43.2" r="3.83811" cy="7.2"/>
      <circle gorn="0.3.0.6" connectorname="CS1" id="connector15pad" stroke="white" fill="white" stroke-width="1.67868" cx="46.8" r="1.89666" cy="45"/>
      <circle gorn="0.3.0.7" connectorname="CS2" id="connector16pad" stroke="white" fill="white" stroke-width="1.67868" cx="46.8" r="1.89666" cy="52.2"/>
      <circle gorn="0.3.0.8" connectorname="CS3" id="connector17pad" stroke="white" fill="white" stroke-width="1.67868" cx="46.8" r="1.89666" cy="59.4"/>
      <circle gorn="0.3.0.9" connectorname="CS4" id="connector18pad" stroke="white" fill="white" stroke-width="1.67868" cx="46.8" r="1.89666" cy="66.6"/>
      <circle gorn="0.3.0.10" connectorname="CS5" id="connector19pad" stroke="white" fill="white" stroke-width="1.67868" cx="46.8" r="1.89666" cy="73.8"/>
      <circle gorn="0.3.0.11" connectorname="CS6" id="connector20pad" stroke="white" fill="white" stroke-width="1.67868" cx="46.8" r="1.89666" cy="81"/>
      <circle gorn="0.3.0.12" connectorname="CS7" id="connector21pad" stroke="white" fill="white" stroke-width="1.67868" cx="46.8" r="1.89666" cy="88.2"/>
      <circle gorn="0.3.0.13" connectorname="CS8" id="connector22pad" stroke="white" fill="white" stroke-width="1.67868" cx="46.8" r="1.89666" cy="95.4"/>
      <circle gorn="0.3.0.14" connectorname="ADDR" id="connector23pad" stroke="white" fill="white" stroke-width="1.67868" cx="46.8" r="1.89666" cy="102.6"/>
      <circle gorn="0.3.0.15" connectorname="P$1" id="connector80pad" stroke="white" fill="white" stroke-width="2.16" cx="43.2" r="3.83811" cy="111.6"/>
      <circle gorn="0.3.0.16" connectorname="SDA/MISO" id="connector24pad" stroke="white" fill="white" stroke-width="1.67868" cx="3.6" r="1.89666" cy="16.2"/>
      <rect x="1.70334" width="3.79332" y="14.3033" stroke="white" fill="white" stroke-width="1.67868" height="3.79332"/>
      <circle gorn="0.3.0.18" connectorname="SCK" id="connector25pad" stroke="white" fill="white" stroke-width="1.67868" cx="3.6" r="1.89666" cy="23.4"/>
      <circle gorn="0.3.0.19" connectorname="VIN" id="connector26pad" stroke="white" fill="white" stroke-width="1.67868" cx="3.6" r="1.89666" cy="30.6"/>
      <circle gorn="0.3.0.20" connectorname="GND" id="connector27pad" stroke="white" fill="white" stroke-width="1.67868" cx="3.6" r="1.89666" cy="37.8"/>
      <circle gorn="0.3.0.21" connectorname="LED1" id="connector28pad" stroke="white" fill="white" stroke-width="1.67868" cx="3.6" r="1.89666" cy="45"/>
      <circle gorn="0.3.0.22" connectorname="LED2" id="connector29pad" stroke="white" fill="white" stroke-width="1.67868" cx="3.6" r="1.89666" cy="52.2"/>
      <circle gorn="0.3.0.23" connectorname="LED3" id="connector30pad" stroke="white" fill="white" stroke-width="1.67868" cx="3.6" r="1.89666" cy="59.4"/>
      <circle gorn="0.3.0.24" connectorname="LED4" id="connector31pad" stroke="white" fill="white" stroke-width="1.67868" cx="3.6" r="1.89666" cy="66.6"/>
      <circle gorn="0.3.0.25" connectorname="LED5" id="connector32pad" stroke="white" fill="white" stroke-width="1.67868" cx="3.6" r="1.89666" cy="73.8"/>
      <circle gorn="0.3.0.26" connectorname="LED6" id="connector33pad" stroke="white" fill="white" stroke-width="1.67868" cx="3.6" r="1.89666" cy="81"/>
      <circle gorn="0.3.0.27" connectorname="LED7" id="connector34pad" stroke="white" fill="white" stroke-width="1.67868" cx="3.6" r="1.89666" cy="88.2"/>
      <circle gorn="0.3.0.28" connectorname="LED8" id="connector35pad" stroke="white" fill="white" stroke-width="1.67868" cx="3.6" r="1.89666" cy="95.4"/>
      <circle gorn="0.3.0.29" connectorname="IRQ" id="connector36pad" stroke="white" fill="white" stroke-width="1.67868" cx="3.6" r="1.89666" cy="102.6"/>
      <circle gorn="0.3.0.30" connectorname="P$1" id="connector79pad" stroke="white" fill="white" stroke-width="2.16" cx="7.2" r="3.83811" cy="111.6"/>
      <circle gorn="0.3.0.31" connectorname="P$1" id="connector81pad" stroke="white" fill="white" stroke-width="2.16" cx="7.2" r="3.83811" cy="7.2"/>
     </g>
    </g>
   </g>
  </g>
 </g>
 <g partID="854333822">
  <g transform="translate(10.516,149.475)">
   <g transform="matrix(0,-1,1,0,0,0)">
    <g gorn="0.3" id="copper1">
     <g gorn="0.3.0" id="copper0">
      <circle gorn="0.3.0.0" connectorname="WAKE/MOSI" id="connector11pad" stroke="white" fill="white" stroke-width="1.67868" cx="46.8" r="1.89666" cy="16.2"/>
      <rect x="44.9033" width="3.79332" y="14.3033" stroke="white" fill="white" stroke-width="1.67868" height="3.79332"/>
      <circle gorn="0.3.0.2" connectorname="CS" id="connector12pad" stroke="white" fill="white" stroke-width="1.67868" cx="46.8" r="1.89666" cy="23.4"/>
      <circle gorn="0.3.0.3" connectorname="RESET" id="connector13pad" stroke="white" fill="white" stroke-width="1.67868" cx="46.8" r="1.89666" cy="30.6"/>
      <circle gorn="0.3.0.4" connectorname="3.3V" id="connector14pad" stroke="white" fill="white" stroke-width="1.67868" cx="46.8" r="1.89666" cy="37.8"/>
      <circle gorn="0.3.0.5" connectorname="P$1" id="connector82pad" stroke="white" fill="white" stroke-width="2.16" cx="43.2" r="3.83811" cy="7.2"/>
      <circle gorn="0.3.0.6" connectorname="CS1" id="connector15pad" stroke="white" fill="white" stroke-width="1.67868" cx="46.8" r="1.89666" cy="45"/>
      <circle gorn="0.3.0.7" connectorname="CS2" id="connector16pad" stroke="white" fill="white" stroke-width="1.67868" cx="46.8" r="1.89666" cy="52.2"/>
      <circle gorn="0.3.0.8" connectorname="CS3" id="connector17pad" stroke="white" fill="white" stroke-width="1.67868" cx="46.8" r="1.89666" cy="59.4"/>
      <circle gorn="0.3.0.9" connectorname="CS4" id="connector18pad" stroke="white" fill="white" stroke-width="1.67868" cx="46.8" r="1.89666" cy="66.6"/>
      <circle gorn="0.3.0.10" connectorname="CS5" id="connector19pad" stroke="white" fill="white" stroke-width="1.67868" cx="46.8" r="1.89666" cy="73.8"/>
      <circle gorn="0.3.0.11" connectorname="CS6" id="connector20pad" stroke="white" fill="white" stroke-width="1.67868" cx="46.8" r="1.89666" cy="81"/>
      <circle gorn="0.3.0.12" connectorname="CS7" id="connector21pad" stroke="white" fill="white" stroke-width="1.67868" cx="46.8" r="1.89666" cy="88.2"/>
      <circle gorn="0.3.0.13" connectorname="CS8" id="connector22pad" stroke="white" fill="white" stroke-width="1.67868" cx="46.8" r="1.89666" cy="95.4"/>
      <circle gorn="0.3.0.14" connectorname="ADDR" id="connector23pad" stroke="white" fill="white" stroke-width="1.67868" cx="46.8" r="1.89666" cy="102.6"/>
      <circle gorn="0.3.0.15" connectorname="P$1" id="connector80pad" stroke="white" fill="white" stroke-width="2.16" cx="43.2" r="3.83811" cy="111.6"/>
      <circle gorn="0.3.0.16" connectorname="SDA/MISO" id="connector24pad" stroke="white" fill="white" stroke-width="1.67868" cx="3.6" r="1.89666" cy="16.2"/>
      <rect x="1.70334" width="3.79332" y="14.3033" stroke="white" fill="white" stroke-width="1.67868" height="3.79332"/>
      <circle gorn="0.3.0.18" connectorname="SCK" id="connector25pad" stroke="white" fill="white" stroke-width="1.67868" cx="3.6" r="1.89666" cy="23.4"/>
      <circle gorn="0.3.0.19" connectorname="VIN" id="connector26pad" stroke="white" fill="white" stroke-width="1.67868" cx="3.6" r="1.89666" cy="30.6"/>
      <circle gorn="0.3.0.20" connectorname="GND" id="connector27pad" stroke="white" fill="white" stroke-width="1.67868" cx="3.6" r="1.89666" cy="37.8"/>
      <circle gorn="0.3.0.21" connectorname="LED1" id="connector28pad" stroke="white" fill="white" stroke-width="1.67868" cx="3.6" r="1.89666" cy="45"/>
      <circle gorn="0.3.0.22" connectorname="LED2" id="connector29pad" stroke="white" fill="white" stroke-width="1.67868" cx="3.6" r="1.89666" cy="52.2"/>
      <circle gorn="0.3.0.23" connectorname="LED3" id="connector30pad" stroke="white" fill="white" stroke-width="1.67868" cx="3.6" r="1.89666" cy="59.4"/>
      <circle gorn="0.3.0.24" connectorname="LED4" id="connector31pad" stroke="white" fill="white" stroke-width="1.67868" cx="3.6" r="1.89666" cy="66.6"/>
      <circle gorn="0.3.0.25" connectorname="LED5" id="connector32pad" stroke="white" fill="white" stroke-width="1.67868" cx="3.6" r="1.89666" cy="73.8"/>
      <circle gorn="0.3.0.26" connectorname="LED6" id="connector33pad" stroke="white" fill="white" stroke-width="1.67868" cx="3.6" r="1.89666" cy="81"/>
      <circle gorn="0.3.0.27" connectorname="LED7" id="connector34pad" stroke="white" fill="white" stroke-width="1.67868" cx="3.6" r="1.89666" cy="88.2"/>
      <circle gorn="0.3.0.28" connectorname="LED8" id="connector35pad" stroke="white" fill="white" stroke-width="1.67868" cx="3.6" r="1.89666" cy="95.4"/>
      <circle gorn="0.3.0.29" connectorname="IRQ" id="connector36pad" stroke="white" fill="white" stroke-width="1.67868" cx="3.6" r="1.89666" cy="102.6"/>
      <circle gorn="0.3.0.30" connectorname="P$1" id="connector79pad" stroke="white" fill="white" stroke-width="2.16" cx="7.2" r="3.83811" cy="111.6"/>
      <circle gorn="0.3.0.31" connectorname="P$1" id="connector81pad" stroke="white" fill="white" stroke-width="2.16" cx="7.2" r="3.83811" cy="7.2"/>
     </g>
    </g>
   </g>
  </g>
 </g>
 <g partID="854668582">
  <g transform="translate(204.556,18.5538)">
   <g transform="matrix(0,1,-1,0,0,0)">
    <g id="copper1">
     <g id="copper0">
      <circle fill="white" id="connector0pin" stroke="white" stroke-width="2.16" cx="5.04" r="2.088" cy="5.04"/>
      <circle fill="white" id="connector1pin" stroke="white" stroke-width="2.16" cx="5.04" r="2.088" cy="12.24"/>
      <circle fill="white" id="connector2pin" stroke="white" stroke-width="2.16" cx="5.04" r="2.088" cy="19.44"/>
      <circle fill="white" id="connector3pin" stroke="white" stroke-width="2.16" cx="5.04" r="2.088" cy="26.64"/>
     </g>
    </g>
   </g>
  </g>
 </g>
 <g partID="854828072">
  <g transform="translate(233.356,148.154)">
   <g transform="matrix(0,1,-1,0,0,0)">
    <g id="copper1">
     <g id="copper0">
      <circle fill="white" id="connector0pin" stroke="white" stroke-width="2.16" cx="5.04" r="2.088" cy="5.04"/>
      <circle fill="white" id="connector1pin" stroke="white" stroke-width="2.16" cx="5.04" r="2.088" cy="12.24"/>
      <circle fill="white" id="connector2pin" stroke="white" stroke-width="2.16" cx="5.04" r="2.088" cy="19.44"/>
      <circle fill="white" id="connector3pin" stroke="white" stroke-width="2.16" cx="5.04" r="2.088" cy="26.64"/>
      <circle fill="white" id="connector4pin" stroke="white" stroke-width="2.16" cx="5.04" r="2.088" cy="33.84"/>
      <circle fill="white" id="connector0pin" stroke="white" stroke-width="2.16" cx="5.04" r="2.088" cy="5.04"/>
      <circle fill="white" id="connector1pin" stroke="white" stroke-width="2.16" cx="5.04" r="2.088" cy="12.24"/>
      <circle fill="white" id="connector2pin" stroke="white" stroke-width="2.16" cx="5.04" r="2.088" cy="19.44"/>
      <circle fill="white" id="connector3pin" stroke="white" stroke-width="2.16" cx="5.04" r="2.088" cy="26.64"/>
      <circle fill="white" id="connector4pin" stroke="white" stroke-width="2.16" cx="5.04" r="2.088" cy="33.84"/>
      <circle fill="white" id="connector5pin" stroke="white" stroke-width="2.16" cx="12.24" r="2.088" cy="33.84"/>
      <circle fill="white" id="connector6pin" stroke="white" stroke-width="2.16" cx="12.24" r="2.088" cy="26.64"/>
      <circle fill="white" id="connector7pin" stroke="white" stroke-width="2.16" cx="12.24" r="2.088" cy="19.44"/>
      <circle fill="white" id="connector8pin" stroke="white" stroke-width="2.16" cx="12.24" r="2.088" cy="12.24"/>
      <circle fill="white" id="connector9pin" stroke="white" stroke-width="2.16" cx="12.24" r="2.088" cy="5.04"/>
     </g>
    </g>
   </g>
  </g>
 </g>
 <g partID="854878382">
  <g transform="translate(50.476,93.4338)">
   <g transform="matrix(0,-1,1,0,0,0)">
    <g id="copper1">
     <g id="copper0">
      <circle fill="white" id="connector0pin" stroke="white" stroke-width="2.16" cx="5.04" r="2.088" cy="5.04"/>
      <circle fill="white" id="connector1pin" stroke="white" stroke-width="2.16" cx="5.04" r="2.088" cy="12.24"/>
      <circle fill="white" id="connector2pin" stroke="white" stroke-width="2.16" cx="5.04" r="2.088" cy="19.44"/>
      <circle fill="white" id="connector3pin" stroke="white" stroke-width="2.16" cx="5.04" r="2.088" cy="26.64"/>
      <circle fill="white" id="connector4pin" stroke="white" stroke-width="2.16" cx="5.04" r="2.088" cy="33.84"/>
      <circle fill="white" id="connector5pin" stroke="white" stroke-width="2.16" cx="5.04" r="2.088" cy="41.04"/>
      <circle fill="white" id="connector6pin" stroke="white" stroke-width="2.16" cx="5.04" r="2.088" cy="48.24"/>
      <circle fill="white" id="connector7pin" stroke="white" stroke-width="2.16" cx="5.04" r="2.088" cy="55.44"/>
      <circle fill="white" id="connector0pin" stroke="white" stroke-width="2.16" cx="5.04" r="2.088" cy="5.04"/>
      <circle fill="white" id="connector1pin" stroke="white" stroke-width="2.16" cx="5.04" r="2.088" cy="12.24"/>
      <circle fill="white" id="connector2pin" stroke="white" stroke-width="2.16" cx="5.04" r="2.088" cy="19.44"/>
      <circle fill="white" id="connector3pin" stroke="white" stroke-width="2.16" cx="5.04" r="2.088" cy="26.64"/>
      <circle fill="white" id="connector4pin" stroke="white" stroke-width="2.16" cx="5.04" r="2.088" cy="33.84"/>
      <circle fill="white" id="connector5pin" stroke="white" stroke-width="2.16" cx="5.04" r="2.088" cy="41.04"/>
      <circle fill="white" id="connector6pin" stroke="white" stroke-width="2.16" cx="5.04" r="2.088" cy="48.24"/>
      <circle fill="white" id="connector7pin" stroke="white" stroke-width="2.16" cx="5.04" r="2.088" cy="55.44"/>
      <circle fill="white" id="connector8pin" stroke="white" stroke-width="2.16" cx="12.24" r="2.088" cy="55.44"/>
      <circle fill="white" id="connector9pin" stroke="white" stroke-width="2.16" cx="12.24" r="2.088" cy="48.24"/>
      <circle fill="white" id="connector10pin" stroke="white" stroke-width="2.16" cx="12.24" r="2.088" cy="41.04"/>
      <circle fill="white" id="connector11pin" stroke="white" stroke-width="2.16" cx="12.24" r="2.088" cy="33.84"/>
      <circle fill="white" id="connector12pin" stroke="white" stroke-width="2.16" cx="12.24" r="2.088" cy="26.64"/>
      <circle fill="white" id="connector13pin" stroke="white" stroke-width="2.16" cx="12.24" r="2.088" cy="19.44"/>
      <circle fill="white" id="connector14pin" stroke="white" stroke-width="2.16" cx="12.24" r="2.088" cy="12.24"/>
      <circle fill="white" id="connector15pin" stroke="white" stroke-width="2.16" cx="12.24" r="2.088" cy="5.04"/>
     </g>
    </g>
   </g>
  </g>
 </g>
 <g partID="854425562">
  <g transform="translate(175.756,129.434)">
   <g transform="matrix(-1,0,0,-1,0,0)">
    <g id="copper1">
     <g id="copper0">
      <circle fill="white" id="connector0pin" stroke="white" stroke-width="2.16" cx="5.04" r="2.088" cy="5.04"/>
      <circle fill="white" id="connector1pin" stroke="white" stroke-width="2.16" cx="5.04" r="2.088" cy="12.24"/>
     </g>
    </g>
   </g>
  </g>
 </g>
 <g partID="854373932">
  <g transform="translate(277.276,-12.7662)">
   <g transform="matrix(0,1,-1,0,0,0)">
    <g id="copper1">
     <g id="copper0">
      <circle fill="white" id="connector0pin" stroke="white" stroke-width="2.16" cx="39.24" r="4.32" cy="12.96"/>
      <circle fill="white" id="connector1pin" stroke="white" stroke-width="2.16" cx="21.96" r="4.32" cy="12.96"/>
      <circle fill="white" id="connector2pin" stroke="white" stroke-width="2.16" cx="30.6" r="4.32" cy="26.64"/>
     </g>
    </g>
   </g>
  </g>
 </g>
 <g partID="58142">
  <g transform="translate(254.147,34.2278)">
   <g transform="matrix(6.93889e-18,1,-1,6.93889e-18,0,0)">
    <g transform="matrix(1, 0, 0, 1, -110.015, -437.288)">
     <g id="copper1">
      <g>
       <path d="M110.015,510.989l48.698,0l10.829,0l48.699,0l0,-73.7014L110.015,437.288L110.015,510.989L110.015,510.989z" display="none" gorn="0.1.0.0.0.0.0" fill="white" id="Huzzah_PCB_2_" stroke="white" stroke-width="0.72"/>
       <g gorn="0.1.0.0.0.0.1" id="copper0">
        <circle gorn="0.1.0.0.0.0.1.0" fill="white" stroke-width="1.872" stroke="white" id="connector11pin" r="1.584" cx="200.181" cy="506.292"/>
        <circle gorn="0.1.0.0.0.0.1.1" fill="white" stroke-width="1.872" stroke="white" id="connector12pin" r="1.584" cx="192.981" cy="506.292"/>
        <circle gorn="0.1.0.0.0.0.1.2" fill="white" stroke-width="1.872" stroke="white" id="connector13pin" r="1.584" cx="185.781" cy="506.264"/>
        <circle gorn="0.1.0.0.0.0.1.3" fill="white" stroke-width="1.872" stroke="white" id="connector14pin" r="1.584" cx="178.581" cy="506.264"/>
        <circle gorn="0.1.0.0.0.0.1.4" fill="white" stroke-width="1.872" stroke="white" id="connector15pin" r="1.584" cx="171.381" cy="506.292"/>
        <circle gorn="0.1.0.0.0.0.1.5" fill="white" stroke-width="1.872" stroke="white" id="connector16pin" r="1.584" cx="164.181" cy="506.293"/>
        <circle gorn="0.1.0.0.0.0.1.6" fill="white" stroke-width="1.872" stroke="white" id="connector17pin" r="1.584" cx="156.981" cy="506.293"/>
        <circle gorn="0.1.0.0.0.0.1.7" fill="white" stroke-width="1.872" stroke="white" id="connector18pin" r="1.584" cx="149.781" cy="506.293"/>
        <circle gorn="0.1.0.0.0.0.1.8" fill="white" stroke-width="1.872" stroke="white" id="connector19pin" r="1.584" cx="142.582" cy="506.293"/>
        <circle gorn="0.1.0.0.0.0.1.9" fill="white" stroke-width="1.872" stroke="white" id="connector20pin" r="1.584" cx="135.381" cy="506.292"/>
        <circle gorn="0.1.0.0.0.0.1.10" fill="white" stroke-width="1.872" stroke="white" id="connector10pin" r="1.584" cx="200.181" cy="441.518"/>
        <circle gorn="0.1.0.0.0.0.1.11" fill="white" stroke-width="1.872" stroke="white" id="connector9pin" r="1.584" cx="192.981" cy="441.518"/>
        <circle gorn="0.1.0.0.0.0.1.12" fill="white" stroke-width="1.872" stroke="white" id="connector8pin" r="1.584" cx="185.781" cy="441.491"/>
        <circle gorn="0.1.0.0.0.0.1.13" fill="white" stroke-width="1.872" stroke="white" id="connector7pin" r="1.584" cx="178.581" cy="441.491"/>
        <circle gorn="0.1.0.0.0.0.1.14" fill="white" stroke-width="1.872" stroke="white" id="connector6pin" r="1.584" cx="171.381" cy="441.518"/>
        <circle gorn="0.1.0.0.0.0.1.15" fill="white" stroke-width="1.872" stroke="white" id="connector5pin" r="1.584" cx="164.181" cy="441.519"/>
        <circle gorn="0.1.0.0.0.0.1.16" fill="white" stroke-width="1.872" stroke="white" id="connector4pin" r="1.584" cx="156.981" cy="441.519"/>
        <circle gorn="0.1.0.0.0.0.1.17" fill="white" stroke-width="1.872" stroke="white" id="connector3pin" r="1.584" cx="149.781" cy="441.519"/>
        <circle gorn="0.1.0.0.0.0.1.18" fill="white" stroke-width="1.872" stroke="white" id="connector2pin" r="1.584" cx="142.582" cy="441.519"/>
        <circle gorn="0.1.0.0.0.0.1.19" fill="white" stroke-width="1.872" stroke="white" id="connector1pin" r="1.584" cx="135.381" cy="441.519"/>
        <circle gorn="0.1.0.0.0.0.1.20" fill="white" stroke-width="1.872" stroke="white" id="connector21pin" r="1.584" cx="113.769" cy="484.691"/>
        <circle gorn="0.1.0.0.0.0.1.21" fill="white" stroke-width="1.872" stroke="white" id="connector22pin" r="1.584" cx="113.796" cy="470.292"/>
        <circle gorn="0.1.0.0.0.0.1.22" fill="white" stroke-width="1.872" stroke="white" id="connector23pin" r="1.584" cx="113.796" cy="463.091"/>
        <circle gorn="0.1.0.0.0.0.1.23" fill="white" stroke-width="1.872" stroke="white" id="connector24pin" r="1.584" cx="113.769" cy="455.891"/>
       </g>
       <circle fill="white" stroke="white" stroke-width="0.72" r="1.196" cx="113.769" cy="477.29"/>
       <circle gorn="0.1.0.0.0.0.3" fill="white" stroke-width="1.872" stroke="white" id="connector0pin_83_" r="1.584" cx="113.769" cy="477.29"/>
       <circle fill="white" stroke="white" stroke-width="0.72" r="1.196" cx="113.796" cy="448.042"/>
       <circle gorn="0.1.0.0.0.0.5" fill="white" stroke-width="1.872" stroke="white" id="connector0pin_82_" r="1.584" cx="113.796" cy="448.042"/>
       <g gorn="0.1.0.0.0.0.6" id="silkscreen">
        <line x1="216.135" x2="119.471" fill="white" stroke-width="1.8314" stroke="white" y1="446.458" y2="446.458"/>
        <line x1="119.471" x2="119.471" fill="white" stroke-width="1.8314" stroke="white" y1="446.458" y2="500.613"/>
        <line x1="119.471" x2="216.135" fill="white" stroke-width="1.8314" stroke="white" y1="500.613" y2="500.613"/>
        <line x1="216.135" x2="216.136" fill="white" stroke-width="1.8314" stroke="white" y1="446.458" y2="459.808"/>
        <line x1="216.135" x2="216.135" fill="white" stroke-width="1.8314" stroke="white" y1="487.252" y2="500.613"/>
       </g>
       <g gorn="0.1.0.0.0.0.7" id="keepout"/>
       <g gorn="0.1.0.0.0.0.8" id="soldermask"/>
      </g>
     </g>
    </g>
   </g>
  </g>
 </g>
</svg>
