G04 MADE WITH FRITZING*
G04 WWW.FRITZING.ORG*
G04 DOUBLE SIDED*
G04 HOLES PLATED*
G04 CONTOUR ON CENTER OF CONTOUR VECTOR*
%ASAXBY*%
%FSLAX23Y23*%
%MOIN*%
%OFA0B0*%
%SFA1.0B1.0*%
%ADD10C,0.066000*%
%ADD11C,0.126614*%
%ADD12C,0.078000*%
%ADD13C,0.140000*%
%ADD14C,0.060000*%
%ADD15C,0.033222*%
%ADD16R,0.066000X0.066000*%
%ADD17C,0.015436*%
%ADD18R,0.001000X0.001000*%
%LNCOPPER1*%
G90*
G70*
G54D10*
X1871Y1672D03*
X1771Y1672D03*
X1671Y1672D03*
X1571Y1672D03*
G54D11*
X1996Y1722D03*
G54D10*
X1471Y1672D03*
X1371Y1672D03*
X1271Y1672D03*
X1171Y1672D03*
X1071Y1672D03*
X971Y1672D03*
X871Y1672D03*
X771Y1672D03*
X671Y1672D03*
G54D11*
X546Y1722D03*
G54D10*
X1871Y2272D03*
X1771Y2272D03*
X1671Y2272D03*
X1571Y2272D03*
X1471Y2272D03*
X1371Y2272D03*
X1271Y2272D03*
X1171Y2272D03*
X1071Y2272D03*
X971Y2272D03*
X871Y2272D03*
X771Y2272D03*
X671Y2272D03*
G54D11*
X546Y2222D03*
X1996Y2222D03*
G54D10*
X371Y1174D03*
X471Y1174D03*
X571Y1174D03*
X671Y1174D03*
G54D11*
X246Y1124D03*
G54D10*
X771Y1174D03*
X871Y1174D03*
X971Y1174D03*
X1071Y1174D03*
X1171Y1174D03*
X1271Y1174D03*
X1371Y1174D03*
X1471Y1174D03*
X1571Y1174D03*
G54D11*
X1696Y1124D03*
G54D10*
X371Y574D03*
X471Y574D03*
X571Y574D03*
X671Y574D03*
X771Y574D03*
X871Y574D03*
X971Y574D03*
X1071Y574D03*
X1171Y574D03*
X1271Y574D03*
X1371Y574D03*
X1471Y574D03*
X1571Y574D03*
G54D11*
X1696Y624D03*
X246Y624D03*
G54D12*
X2771Y2272D03*
X2671Y2272D03*
X2571Y2272D03*
X2471Y2272D03*
X3171Y472D03*
X3071Y472D03*
X2971Y472D03*
X2871Y472D03*
X2771Y472D03*
X3171Y472D03*
X3071Y472D03*
X2971Y472D03*
X2871Y472D03*
X2771Y472D03*
X2771Y372D03*
X2871Y372D03*
X2971Y372D03*
X3071Y372D03*
X3171Y372D03*
X771Y1372D03*
X871Y1372D03*
X971Y1372D03*
X1071Y1372D03*
X1171Y1372D03*
X1271Y1372D03*
X1371Y1372D03*
X1471Y1372D03*
X771Y1372D03*
X871Y1372D03*
X971Y1372D03*
X1071Y1372D03*
X1171Y1372D03*
X1271Y1372D03*
X1371Y1372D03*
X1471Y1372D03*
X1471Y1472D03*
X1371Y1472D03*
X1271Y1472D03*
X1171Y1472D03*
X1071Y1472D03*
X971Y1472D03*
X871Y1472D03*
X771Y1472D03*
X2371Y872D03*
X2371Y972D03*
G54D13*
X3671Y2232D03*
X3671Y2472D03*
X3481Y2352D03*
G54D14*
X2571Y872D03*
X2571Y972D03*
X2572Y1072D03*
X2572Y1172D03*
X2571Y1272D03*
X2571Y1372D03*
X2571Y1472D03*
X2571Y1572D03*
X2571Y1672D03*
X2571Y1772D03*
X3471Y872D03*
X3471Y972D03*
X3471Y1072D03*
X3471Y1172D03*
X3471Y1272D03*
X3471Y1372D03*
X3471Y1472D03*
X3471Y1572D03*
X3471Y1672D03*
X3471Y1772D03*
X2871Y2073D03*
X3071Y2072D03*
X3171Y2072D03*
X3271Y2073D03*
G54D15*
X2974Y2073D03*
G54D14*
X2974Y2073D03*
G54D15*
X3380Y2072D03*
G54D14*
X3380Y2072D03*
G54D16*
X1871Y1672D03*
X1871Y2272D03*
X371Y1174D03*
X371Y574D03*
G54D17*
X3402Y651D02*
X3402Y1993D01*
D02*
X3402Y1993D02*
X2650Y1993D01*
D02*
X2650Y1993D02*
X2650Y651D01*
D02*
X3402Y651D02*
X3217Y651D01*
D02*
X2836Y651D02*
X2650Y651D01*
G54D18*
D02*
G04 End of Copper1*
M02*