G04 MADE WITH FRITZING*
G04 WWW.FRITZING.ORG*
G04 DOUBLE SIDED*
G04 HOLES PLATED*
G04 CONTOUR ON CENTER OF CONTOUR VECTOR*
%ASAXBY*%
%FSLAX23Y23*%
%MOIN*%
%OFA0B0*%
%SFA1.0B1.0*%
%ADD10C,0.060000*%
%ADD11C,0.066000*%
%ADD12C,0.126614*%
%ADD13C,0.078000*%
%ADD14C,0.140000*%
%ADD15R,0.066000X0.066000*%
%ADD16C,0.024000*%
%LNCOPPER0*%
G90*
G70*
G54D10*
X2571Y872D03*
X2571Y972D03*
X2572Y1072D03*
X2572Y1172D03*
X2571Y1272D03*
X2571Y1372D03*
X2571Y1472D03*
X2571Y1572D03*
X2571Y1672D03*
X2571Y1772D03*
X3471Y872D03*
X3471Y972D03*
X3471Y1072D03*
X3471Y1172D03*
X3471Y1272D03*
X3471Y1372D03*
X3471Y1472D03*
X3471Y1572D03*
X3471Y1672D03*
X3471Y1772D03*
X2871Y2073D03*
X3071Y2072D03*
X3171Y2072D03*
X3271Y2073D03*
G54D11*
X1871Y1672D03*
X1771Y1672D03*
X1671Y1672D03*
X1571Y1672D03*
G54D12*
X1996Y1722D03*
G54D11*
X1471Y1672D03*
X1371Y1672D03*
X1271Y1672D03*
X1171Y1672D03*
X1071Y1672D03*
X971Y1672D03*
X871Y1672D03*
X771Y1672D03*
X671Y1672D03*
G54D12*
X546Y1722D03*
G54D11*
X1871Y2272D03*
X1771Y2272D03*
X1671Y2272D03*
X1571Y2272D03*
X1471Y2272D03*
X1371Y2272D03*
X1271Y2272D03*
X1171Y2272D03*
X1071Y2272D03*
X971Y2272D03*
X871Y2272D03*
X771Y2272D03*
X671Y2272D03*
G54D12*
X546Y2222D03*
X1996Y2222D03*
G54D11*
X371Y1174D03*
X471Y1174D03*
X571Y1174D03*
X671Y1174D03*
G54D12*
X246Y1124D03*
G54D11*
X771Y1174D03*
X871Y1174D03*
X971Y1174D03*
X1071Y1174D03*
X1171Y1174D03*
X1271Y1174D03*
X1371Y1174D03*
X1471Y1174D03*
X1571Y1174D03*
G54D12*
X1696Y1124D03*
G54D11*
X371Y574D03*
X471Y574D03*
X571Y574D03*
X671Y574D03*
X771Y574D03*
X871Y574D03*
X971Y574D03*
X1071Y574D03*
X1171Y574D03*
X1271Y574D03*
X1371Y574D03*
X1471Y574D03*
X1571Y574D03*
G54D12*
X1696Y624D03*
X246Y624D03*
G54D13*
X2771Y2272D03*
X2671Y2272D03*
X2571Y2272D03*
X2471Y2272D03*
X3171Y472D03*
X3071Y472D03*
X2971Y472D03*
X2871Y472D03*
X2771Y472D03*
X3171Y472D03*
X3071Y472D03*
X2971Y472D03*
X2871Y472D03*
X2771Y472D03*
X2771Y372D03*
X2871Y372D03*
X2971Y372D03*
X3071Y372D03*
X3171Y372D03*
X771Y1372D03*
X871Y1372D03*
X971Y1372D03*
X1071Y1372D03*
X1171Y1372D03*
X1271Y1372D03*
X1371Y1372D03*
X1471Y1372D03*
X771Y1372D03*
X871Y1372D03*
X971Y1372D03*
X1071Y1372D03*
X1171Y1372D03*
X1271Y1372D03*
X1371Y1372D03*
X1471Y1372D03*
X1471Y1472D03*
X1371Y1472D03*
X1271Y1472D03*
X1171Y1472D03*
X1071Y1472D03*
X971Y1472D03*
X871Y1472D03*
X771Y1472D03*
X2371Y872D03*
X2371Y972D03*
G54D14*
X3671Y2232D03*
X3671Y2472D03*
X3481Y2352D03*
G54D15*
X1871Y1672D03*
X1871Y2272D03*
X371Y1174D03*
X371Y574D03*
G54D16*
X3570Y471D02*
X3570Y1170D01*
D02*
X3570Y1170D02*
X3497Y1172D01*
D02*
X3372Y274D02*
X3570Y471D01*
D02*
X2972Y274D02*
X3372Y274D01*
D02*
X2971Y348D02*
X2972Y274D01*
D02*
X3471Y1797D02*
X3480Y2291D01*
D02*
X1471Y1342D02*
X1471Y1205D01*
D02*
X1271Y1342D02*
X1271Y1205D01*
D02*
X1371Y1342D02*
X1371Y1205D01*
D02*
X3189Y496D02*
X3456Y852D01*
D02*
X3372Y1671D02*
X3446Y1672D01*
D02*
X2972Y1973D02*
X3372Y1671D01*
D02*
X2972Y2171D02*
X2972Y1973D01*
D02*
X2793Y2261D02*
X2972Y2171D01*
D02*
X2172Y1772D02*
X2173Y1273D01*
D02*
X2173Y1273D02*
X2070Y1174D01*
D02*
X2070Y1872D02*
X2172Y1772D01*
D02*
X2070Y1174D02*
X2073Y573D01*
D02*
X1771Y1874D02*
X2070Y1872D01*
D02*
X2073Y573D02*
X1969Y474D01*
D02*
X1670Y1970D02*
X1771Y1874D01*
D02*
X1969Y474D02*
X572Y471D01*
D02*
X1671Y2242D02*
X1670Y1970D01*
D02*
X572Y471D02*
X571Y543D01*
D02*
X2871Y274D02*
X2972Y173D01*
D02*
X2972Y173D02*
X3473Y173D01*
D02*
X2871Y348D02*
X2871Y274D01*
D02*
X3473Y173D02*
X3671Y370D01*
D02*
X3671Y370D02*
X3671Y770D01*
D02*
X3673Y1170D02*
X3570Y1271D01*
D02*
X3671Y770D02*
X3673Y1170D01*
D02*
X3570Y1271D02*
X3496Y1272D01*
D02*
X2972Y1174D02*
X2752Y1443D01*
D02*
X2752Y1443D02*
X2596Y1468D01*
D02*
X2971Y497D02*
X2972Y1174D01*
D02*
X971Y1502D02*
X971Y1642D01*
D02*
X1171Y1342D02*
X1171Y1205D01*
D02*
X1071Y1502D02*
X1071Y1642D01*
D02*
X1071Y1342D02*
X1071Y1205D01*
D02*
X2771Y442D02*
X2771Y402D01*
D02*
X1171Y1502D02*
X1171Y1642D01*
D02*
X671Y605D02*
X673Y770D01*
D02*
X673Y770D02*
X572Y871D01*
D02*
X572Y871D02*
X373Y871D01*
D02*
X373Y871D02*
X172Y973D01*
D02*
X172Y973D02*
X71Y1074D01*
D02*
X71Y1074D02*
X71Y1271D01*
D02*
X71Y1271D02*
X273Y1473D01*
D02*
X273Y1473D02*
X370Y1772D01*
D02*
X370Y1772D02*
X572Y1970D01*
D02*
X572Y1970D02*
X1372Y1970D01*
D02*
X1372Y1970D02*
X1570Y2171D01*
D02*
X1570Y2171D02*
X1571Y2242D01*
D02*
X2770Y1074D02*
X2673Y1170D01*
D02*
X2673Y1170D02*
X2597Y1172D01*
D02*
X2770Y770D02*
X2770Y1074D01*
D02*
X2451Y541D02*
X2770Y770D01*
D02*
X2451Y343D02*
X2451Y541D01*
D02*
X2273Y274D02*
X2451Y343D01*
D02*
X471Y274D02*
X2273Y274D01*
D02*
X370Y370D02*
X471Y274D01*
D02*
X371Y549D02*
X370Y370D01*
D02*
X3101Y372D02*
X3141Y372D01*
D02*
X2546Y972D02*
X2401Y972D01*
D02*
X871Y1342D02*
X871Y1205D01*
D02*
X771Y1342D02*
X771Y1205D01*
D02*
X3070Y1272D02*
X2770Y1671D01*
D02*
X2770Y1671D02*
X2471Y2071D01*
D02*
X3071Y502D02*
X3070Y1272D01*
D02*
X2471Y2071D02*
X2471Y2242D01*
D02*
X3071Y442D02*
X3071Y402D01*
D02*
X771Y1502D02*
X771Y1642D01*
D02*
X1471Y1502D02*
X1471Y1642D01*
D02*
X1271Y1502D02*
X1271Y1642D01*
D02*
X773Y974D02*
X1472Y974D01*
D02*
X1472Y974D02*
X1573Y1075D01*
D02*
X672Y1075D02*
X773Y974D01*
D02*
X1573Y1075D02*
X1572Y1143D01*
D02*
X671Y1143D02*
X672Y1075D01*
D02*
X3073Y2471D02*
X3422Y2369D01*
D02*
X2470Y2474D02*
X3073Y2471D01*
D02*
X2471Y2302D02*
X2470Y2474D01*
D02*
X2470Y2474D02*
X1671Y2471D01*
D02*
X1671Y2471D02*
X1570Y2370D01*
D02*
X1570Y2370D02*
X1571Y2303D01*
D02*
X2673Y2172D02*
X3272Y1474D01*
D02*
X3272Y1474D02*
X3446Y1473D01*
D02*
X2672Y2248D02*
X2673Y2172D01*
D02*
X2871Y1073D02*
X2871Y497D01*
D02*
X2770Y1272D02*
X2871Y1073D01*
D02*
X2673Y1373D02*
X2770Y1272D01*
D02*
X2597Y1372D02*
X2673Y1373D01*
D02*
X1371Y1502D02*
X1371Y1642D01*
D02*
X2271Y1074D02*
X2547Y1073D01*
D02*
X2273Y1874D02*
X2271Y1074D01*
D02*
X2271Y1074D02*
X2273Y471D01*
D02*
X2172Y1970D02*
X2273Y1874D01*
D02*
X1872Y1972D02*
X2172Y1970D01*
D02*
X2273Y471D02*
X2172Y370D01*
D02*
X1772Y2071D02*
X1872Y1972D01*
D02*
X2172Y370D02*
X572Y370D01*
D02*
X1771Y2242D02*
X1772Y2071D01*
D02*
X572Y370D02*
X471Y471D01*
D02*
X471Y471D02*
X471Y543D01*
D02*
X2669Y1972D02*
X3169Y1372D01*
D02*
X3169Y1372D02*
X3446Y1372D01*
D02*
X2573Y2174D02*
X2669Y1972D01*
D02*
X2572Y2248D02*
X2573Y2174D01*
D02*
X2401Y872D02*
X2546Y872D01*
D02*
X871Y1502D02*
X871Y1642D01*
D02*
X3671Y1671D02*
X3496Y1672D01*
D02*
X3671Y1671D02*
X3772Y1474D01*
D02*
X3671Y1671D02*
X3671Y2171D01*
D02*
X3772Y1474D02*
X3772Y274D01*
D02*
X3772Y274D02*
X3570Y71D01*
D02*
X3570Y71D02*
X2770Y71D01*
D02*
X2770Y71D02*
X2771Y342D01*
D02*
X2770Y71D02*
X2470Y71D01*
D02*
X2470Y71D02*
X2273Y173D01*
D02*
X2273Y173D02*
X470Y173D01*
D02*
X470Y173D02*
X273Y274D01*
D02*
X273Y274D02*
X172Y471D01*
D02*
X172Y471D02*
X71Y573D01*
D02*
X71Y573D02*
X71Y674D01*
D02*
X71Y674D02*
X172Y770D01*
D02*
X172Y770D02*
X471Y770D01*
D02*
X471Y770D02*
X572Y674D01*
D02*
X572Y674D02*
X571Y605D01*
D02*
X1970Y2071D02*
X1873Y2172D01*
D02*
X1873Y2172D02*
X1872Y2247D01*
D02*
X2273Y2071D02*
X1970Y2071D01*
D02*
X2370Y1970D02*
X2273Y2071D01*
D02*
X2471Y1170D02*
X2372Y1271D01*
D02*
X2372Y1271D02*
X2370Y1970D01*
D02*
X2547Y1172D02*
X2471Y1170D01*
D02*
X971Y1342D02*
X971Y1205D01*
G04 End of Copper0*
M02*