; NON-PLATED HOLES START AT T1
; THROUGH (PLATED) HOLES START AT T100
M48
INCH
T1C0.125984
T2C0.033222
T100C0.086614
T101C0.038000
T102C0.039370
T103C0.100000
T104C0.028000
%
T1
X025710Y003723
X005710Y014231
X018710Y014216
X030710Y022723
T2
X033804Y020721
X029742Y020725
T100
X002460Y011240
X016960Y011240
X002460Y006240
X016960Y006240
X005460Y022223
X019960Y022223
X005460Y017223
X019960Y017223
T101
X023710Y009723
X013710Y013723
X031710Y004723
X008710Y014723
X030710Y004723
X007710Y014723
X009710Y014723
X011710Y014723
X010710Y014723
X012710Y014723
X014710Y014723
X013710Y014723
X028710Y003723
X029710Y003723
X027710Y003723
X023710Y008723
X024710Y022723
X026710Y022723
X025710Y022723
X027710Y022723
X031710Y003723
X008710Y013723
X030710Y003723
X009710Y013723
X007710Y013723
X028710Y004723
X011710Y013723
X027710Y004723
X029710Y004723
X014710Y013723
X012710Y013723
X010710Y013723
T102
X007710Y016723
X009710Y016723
X006710Y022723
X008710Y022723
X007710Y022723
X009710Y022723
X003710Y005740
X011710Y016723
X008710Y005740
X006710Y005740
X004710Y005740
X010710Y016723
X012710Y016723
X014710Y016723
X016710Y016723
X018710Y016723
X009710Y005740
X007710Y005740
X005710Y005740
X013710Y016723
X015710Y016723
X017710Y016723
X003710Y011740
X011710Y022723
X008710Y011740
X006710Y011740
X004710Y011740
X010710Y022723
X012710Y022723
X014710Y022723
X016710Y022723
X018710Y022723
X009710Y011740
X007710Y011740
X005710Y011740
X013710Y022723
X015710Y022723
X017710Y022723
X011710Y005740
X014710Y005740
X012710Y005740
X010710Y005740
X015710Y005740
X013710Y005740
X011710Y011740
X014710Y011740
X012710Y011740
X010710Y011740
X015710Y011740
X013710Y011740
X006710Y016723
X008710Y016723
T103
X036710Y024723
X036710Y022323
X034810Y023523
T104
X031714Y020721
X034710Y015723
X034714Y010723
X028714Y020725
X034710Y008723
X034710Y012723
X025714Y016723
X025718Y011723
X025714Y009723
X025714Y013723
X034710Y017723
X034710Y014723
X025714Y015723
X025718Y010723
X025714Y008723
X025714Y012723
X032714Y020725
X029742Y020725
X030714Y020721
X034710Y016723
X034714Y011723
X034710Y009723
X034710Y013723
X025714Y017723
X025714Y014723
X033804Y020721
T00
M30
